<mxfile modified="2022-01-13T19:33:24.989Z" host="app.diagrams.net" agent="5.0 (Macintosh; Intel Mac OS X 10_15_7) AppleWebKit/537.36 (KHTML, like Gecko) Chrome/97.0.4692.71 Safari/537.36" etag="vmPccp_p9CtEYblIQXHh" version="16.2.6" type="github">
  <diagram id="l8hXMBHkgcEJcSW0mbfh" name="Page-1">
    <mxGraphModel dx="946" dy="589" grid="1" gridSize="10" guides="1" tooltips="1" connect="1" arrows="1" fold="1" page="1" pageScale="1" pageWidth="1169" pageHeight="827" math="0" shadow="0">
      <root>
        <mxCell id="0" />
        <mxCell id="1" parent="0" />
        <mxCell id="v_64cnrj10Wzc9rdgTUz-30" style="edgeStyle=orthogonalEdgeStyle;rounded=0;orthogonalLoop=1;jettySize=auto;html=1;endArrow=none;endFill=0;" edge="1" parent="1" source="8--HhbSZYtI3ddgJnD71-16" target="v_64cnrj10Wzc9rdgTUz-11">
          <mxGeometry relative="1" as="geometry" />
        </mxCell>
        <mxCell id="8--HhbSZYtI3ddgJnD71-16" value="GymMemberXX" style="shape=image;verticalLabelPosition=bottom;verticalAlign=top;imageAspect=0;aspect=fixed;image=data:image/svg+xml,PHN2ZyB4bWxucz0iaHR0cDovL3d3dy53My5vcmcvMjAwMC9zdmciIHZlcnNpb249IjEiIHZpZXdCb3g9IjAgMCA0OCA0OCIgZW5hYmxlLWJhY2tncm91bmQ9Im5ldyAwIDAgNDggNDgiPiYjeGE7ICAgIDxwb2x5Z29uIGZpbGw9IiNGRjk4MDAiIHBvaW50cz0iMjQsMzcgMTksMzEgMTksMjUgMjksMjUgMjksMzEiLz4mI3hhOyAgICA8ZyBmaWxsPSIjRkZBNzI2Ij4mI3hhOyAgICAgICAgPGNpcmNsZSBjeD0iMzMiIGN5PSIxOSIgcj0iMiIvPiYjeGE7ICAgICAgICA8Y2lyY2xlIGN4PSIxNSIgY3k9IjE5IiByPSIyIi8+JiN4YTsgICAgPC9nPiYjeGE7ICAgIDxwYXRoIGZpbGw9IiNGRkI3NEQiIGQ9Ik0zMywxM2MwLTcuNi0xOC01LTE4LDBjMCwxLjEsMCw1LjksMCw3YzAsNSw0LDksOSw5czktNCw5LTlDMzMsMTguOSwzMywxNC4xLDMzLDEzeiIvPiYjeGE7ICAgIDxwYXRoIGZpbGw9IiM0MjQyNDIiIGQ9Ik0yNCw0Yy02LjEsMC0xMCw0LjktMTAsMTFjMCwwLjgsMCwyLjMsMCwyLjNsMiwxLjd2LTVsMTItNGw0LDR2NWwyLTEuN2MwLDAsMC0xLjUsMC0yLjNjMC00LTEtOC02LTlsLTEtMiBIMjR6Ii8+JiN4YTsgICAgPGcgZmlsbD0iIzc4NDcxOSI+JiN4YTsgICAgICAgIDxjaXJjbGUgY3g9IjI4IiBjeT0iMTkiIHI9IjEiLz4mI3hhOyAgICAgICAgPGNpcmNsZSBjeD0iMjAiIGN5PSIxOSIgcj0iMSIvPiYjeGE7ICAgIDwvZz4mI3hhOyAgICA8cG9seWdvbiBmaWxsPSIjZmZmIiBwb2ludHM9IjI0LDQzIDE5LDMxIDI0LDMyIDI5LDMxIi8+JiN4YTsgICAgPHBvbHlnb24gZmlsbD0iI0QzMkYyRiIgcG9pbnRzPSIyMywzNSAyMi4zLDM5LjUgMjQsNDMuNSAyNS43LDM5LjUgMjUsMzUgMjYsMzQgMjQsMzIgMjIsMzQiLz4mI3hhOyAgICA8cGF0aCBmaWxsPSIjNTQ2RTdBIiBkPSJNMjksMzFMMjksMzFsLTUsMTJsLTUtMTJjMCwwLTExLDItMTEsMTNoMzJDNDAsMzMsMjksMzEsMjksMzF6Ii8+JiN4YTs8L3N2Zz4=;labelBackgroundColor=#ffffff;" parent="1" vertex="1">
          <mxGeometry x="96" y="20" width="48" height="48" as="geometry" />
        </mxCell>
        <mxCell id="v_64cnrj10Wzc9rdgTUz-29" style="edgeStyle=orthogonalEdgeStyle;rounded=0;orthogonalLoop=1;jettySize=auto;html=1;endArrow=none;endFill=0;" edge="1" parent="1" source="v_64cnrj10Wzc9rdgTUz-11" target="v_64cnrj10Wzc9rdgTUz-22">
          <mxGeometry relative="1" as="geometry" />
        </mxCell>
        <mxCell id="v_64cnrj10Wzc9rdgTUz-11" value="HCCX" style="html=1;strokeWidth=1;shadow=0;dashed=0;shape=mxgraph.ios7.misc.vpn;fillColor=#007AFF;strokeColor=none;buttonText=;strokeColor2=#222222;fontColor=#222222;fontSize=8;verticalLabelPosition=bottom;verticalAlign=top;align=center;sketch=0;" vertex="1" parent="1">
          <mxGeometry x="100" y="150" width="40" height="40" as="geometry" />
        </mxCell>
        <mxCell id="v_64cnrj10Wzc9rdgTUz-12" value="Private subnet (192.168.252.0/27)" style="points=[[0,0],[0.25,0],[0.5,0],[0.75,0],[1,0],[1,0.25],[1,0.5],[1,0.75],[1,1],[0.75,1],[0.5,1],[0.25,1],[0,1],[0,0.75],[0,0.5],[0,0.25]];outlineConnect=0;gradientColor=none;html=1;whiteSpace=wrap;fontSize=12;fontStyle=0;container=1;pointerEvents=0;collapsible=0;recursiveResize=0;shape=mxgraph.aws4.group;grIcon=mxgraph.aws4.group_security_group;grStroke=0;strokeColor=#147EBA;fillColor=#E6F2F8;verticalAlign=top;align=left;spacingLeft=30;fontColor=#147EBA;dashed=0;" vertex="1" parent="1">
          <mxGeometry x="360" y="150" width="380" height="470" as="geometry" />
        </mxCell>
        <mxCell id="v_64cnrj10Wzc9rdgTUz-20" style="edgeStyle=orthogonalEdgeStyle;rounded=0;orthogonalLoop=1;jettySize=auto;html=1;exitX=1;exitY=0.5;exitDx=0;exitDy=0;endArrow=none;endFill=0;" edge="1" parent="v_64cnrj10Wzc9rdgTUz-12" source="v_64cnrj10Wzc9rdgTUz-2" target="v_64cnrj10Wzc9rdgTUz-18">
          <mxGeometry relative="1" as="geometry">
            <Array as="points">
              <mxPoint x="89" y="230" />
            </Array>
          </mxGeometry>
        </mxCell>
        <mxCell id="v_64cnrj10Wzc9rdgTUz-2" value="bastion.gym.lan&lt;br&gt;192.168.252.2" style="aspect=fixed;perimeter=ellipsePerimeter;html=1;align=center;shadow=0;dashed=0;spacingTop=3;image;image=img/lib/active_directory/generic_server.svg;labelBackgroundColor=none;" vertex="1" parent="v_64cnrj10Wzc9rdgTUz-12">
          <mxGeometry x="55.28999999999999" y="193" width="39.42" height="70.4" as="geometry" />
        </mxCell>
        <mxCell id="v_64cnrj10Wzc9rdgTUz-19" style="edgeStyle=orthogonalEdgeStyle;rounded=0;orthogonalLoop=1;jettySize=auto;html=1;endArrow=none;endFill=0;" edge="1" parent="v_64cnrj10Wzc9rdgTUz-12" source="v_64cnrj10Wzc9rdgTUz-17" target="v_64cnrj10Wzc9rdgTUz-18">
          <mxGeometry relative="1" as="geometry">
            <Array as="points">
              <mxPoint x="130" y="91" />
              <mxPoint x="130" y="91" />
            </Array>
          </mxGeometry>
        </mxCell>
        <mxCell id="v_64cnrj10Wzc9rdgTUz-17" value="pfsense.gym.lan&lt;br&gt;192.168.252.1&lt;br&gt;Router, DHCP, DNS" style="aspect=fixed;perimeter=ellipsePerimeter;html=1;align=center;shadow=0;dashed=0;spacingTop=3;image;image=img/lib/active_directory/router.svg;labelBackgroundColor=none;" vertex="1" parent="v_64cnrj10Wzc9rdgTUz-12">
          <mxGeometry x="50" y="72" width="50" height="38" as="geometry" />
        </mxCell>
        <mxCell id="v_64cnrj10Wzc9rdgTUz-18" value="" style="line;strokeWidth=4;direction=south;html=1;perimeter=backbonePerimeter;points=[];outlineConnect=0;" vertex="1" parent="v_64cnrj10Wzc9rdgTUz-12">
          <mxGeometry x="160" y="39.6" width="10" height="350.4" as="geometry" />
        </mxCell>
        <mxCell id="v_64cnrj10Wzc9rdgTUz-37" style="edgeStyle=orthogonalEdgeStyle;rounded=0;orthogonalLoop=1;jettySize=auto;html=1;exitX=0;exitY=0.5;exitDx=0;exitDy=0;endArrow=none;endFill=0;" edge="1" parent="v_64cnrj10Wzc9rdgTUz-12" source="v_64cnrj10Wzc9rdgTUz-31" target="v_64cnrj10Wzc9rdgTUz-18">
          <mxGeometry relative="1" as="geometry">
            <Array as="points">
              <mxPoint x="210" y="75" />
              <mxPoint x="210" y="75" />
            </Array>
          </mxGeometry>
        </mxCell>
        <mxCell id="v_64cnrj10Wzc9rdgTUz-31" value="OpenShift API Virtual IP&lt;br&gt;api.ocpinstall.gym.lan&lt;br&gt;192.168.252.3" style="aspect=fixed;perimeter=ellipsePerimeter;html=1;align=center;shadow=0;dashed=0;spacingTop=3;image;image=img/lib/active_directory/generic_server.svg;labelBackgroundColor=none;" vertex="1" parent="v_64cnrj10Wzc9rdgTUz-12">
          <mxGeometry x="225" y="39.60000000000004" width="39.42" height="70.4" as="geometry" />
        </mxCell>
        <mxCell id="v_64cnrj10Wzc9rdgTUz-35" style="edgeStyle=orthogonalEdgeStyle;rounded=0;orthogonalLoop=1;jettySize=auto;html=1;endArrow=none;endFill=0;" edge="1" parent="v_64cnrj10Wzc9rdgTUz-12" source="v_64cnrj10Wzc9rdgTUz-32" target="v_64cnrj10Wzc9rdgTUz-18">
          <mxGeometry relative="1" as="geometry">
            <Array as="points">
              <mxPoint x="180" y="215" />
              <mxPoint x="180" y="215" />
            </Array>
          </mxGeometry>
        </mxCell>
        <mxCell id="v_64cnrj10Wzc9rdgTUz-32" value="OpenShift Ingress Virtual IP&lt;br&gt;*.apps.ocpinstall.gym.lan&lt;br&gt;192.168.252.4" style="aspect=fixed;perimeter=ellipsePerimeter;html=1;align=center;shadow=0;dashed=0;spacingTop=3;image;image=img/lib/active_directory/generic_server.svg;labelBackgroundColor=none;" vertex="1" parent="v_64cnrj10Wzc9rdgTUz-12">
          <mxGeometry x="225" y="180" width="39.42" height="70.4" as="geometry" />
        </mxCell>
        <mxCell id="v_64cnrj10Wzc9rdgTUz-36" style="edgeStyle=orthogonalEdgeStyle;rounded=0;orthogonalLoop=1;jettySize=auto;html=1;exitX=0;exitY=0.5;exitDx=0;exitDy=0;endArrow=none;endFill=0;dashed=1;dashPattern=1 1;" edge="1" parent="v_64cnrj10Wzc9rdgTUz-12" source="v_64cnrj10Wzc9rdgTUz-34" target="v_64cnrj10Wzc9rdgTUz-18">
          <mxGeometry relative="1" as="geometry">
            <Array as="points">
              <mxPoint x="180" y="355" />
              <mxPoint x="180" y="355" />
            </Array>
          </mxGeometry>
        </mxCell>
        <mxCell id="v_64cnrj10Wzc9rdgTUz-34" value="DHCP Assignable IPs&lt;br&gt;192.168.252.6 - &lt;br&gt;192.168.252.30" style="aspect=fixed;perimeter=ellipsePerimeter;html=1;align=center;shadow=0;dashed=0;spacingTop=3;image;image=img/lib/active_directory/generic_server.svg;labelBackgroundColor=none;sketch=0;opacity=40;" vertex="1" parent="v_64cnrj10Wzc9rdgTUz-12">
          <mxGeometry x="225" y="320" width="39.42" height="70.4" as="geometry" />
        </mxCell>
        <mxCell id="v_64cnrj10Wzc9rdgTUz-22" value="IBM Network&lt;br&gt;&amp;amp; Internet" style="ellipse;shape=cloud;whiteSpace=wrap;html=1;labelBackgroundColor=none;" vertex="1" parent="1">
          <mxGeometry x="180" y="129.6" width="120" height="80" as="geometry" />
        </mxCell>
        <mxCell id="v_64cnrj10Wzc9rdgTUz-23" value="10.71.91.25x" style="edgeStyle=orthogonalEdgeStyle;rounded=0;orthogonalLoop=1;jettySize=auto;html=1;endArrow=none;endFill=0;exitX=0;exitY=0.5;exitDx=0;exitDy=0;" edge="1" parent="1" source="v_64cnrj10Wzc9rdgTUz-17" target="v_64cnrj10Wzc9rdgTUz-22">
          <mxGeometry x="0.1641" relative="1" as="geometry">
            <Array as="points">
              <mxPoint x="240" y="241" />
            </Array>
            <mxPoint as="offset" />
          </mxGeometry>
        </mxCell>
        <mxCell id="v_64cnrj10Wzc9rdgTUz-24" value="Port Forwards" style="swimlane;fontStyle=0;childLayout=stackLayout;horizontal=1;startSize=30;horizontalStack=0;resizeParent=1;resizeParentMax=0;resizeLast=0;collapsible=1;marginBottom=0;labelBackgroundColor=none;" vertex="1" parent="1">
          <mxGeometry x="150" y="260" width="200" height="120" as="geometry">
            <mxRectangle x="80" y="330" width="110" height="30" as="alternateBounds" />
          </mxGeometry>
        </mxCell>
        <mxCell id="v_64cnrj10Wzc9rdgTUz-25" value="32222 -----&gt; 192.168.252.2:22" style="text;strokeColor=none;fillColor=none;align=left;verticalAlign=middle;spacingLeft=4;spacingRight=4;overflow=hidden;points=[[0,0.5],[1,0.5]];portConstraint=eastwest;rotatable=0;labelBackgroundColor=none;" vertex="1" parent="v_64cnrj10Wzc9rdgTUz-24">
          <mxGeometry y="30" width="200" height="30" as="geometry" />
        </mxCell>
        <mxCell id="v_64cnrj10Wzc9rdgTUz-28" value="443 --------&gt; 192.168.252.2:443" style="text;strokeColor=none;fillColor=none;align=left;verticalAlign=middle;spacingLeft=4;spacingRight=4;overflow=hidden;points=[[0,0.5],[1,0.5]];portConstraint=eastwest;rotatable=0;labelBackgroundColor=none;" vertex="1" parent="v_64cnrj10Wzc9rdgTUz-24">
          <mxGeometry y="60" width="200" height="30" as="geometry" />
        </mxCell>
        <mxCell id="v_64cnrj10Wzc9rdgTUz-26" value="6443 ------&gt; 192.168.252.3:6443" style="text;strokeColor=none;fillColor=none;align=left;verticalAlign=middle;spacingLeft=4;spacingRight=4;overflow=hidden;points=[[0,0.5],[1,0.5]];portConstraint=eastwest;rotatable=0;labelBackgroundColor=none;" vertex="1" parent="v_64cnrj10Wzc9rdgTUz-24">
          <mxGeometry y="90" width="200" height="30" as="geometry" />
        </mxCell>
      </root>
    </mxGraphModel>
  </diagram>
</mxfile>
